<?xml version="1.0" encoding="UTF-8"?>
<svg width="16" height="16" viewBox="0 0 16 16" fill="none" xmlns="http://www.w3.org/2000/svg">
  <path d="M6.5 9.5L9.5 6.5" stroke="currentColor" stroke-width="1.2" stroke-linecap="round"/>
  <path d="M5.25 2.75h-1.5a3 3 0 0 0-3 3v1.5a3 3 0 0 0 3 3h1.5a3 3 0 0 0 3-3v-1.5a3 3 0 0 0-3-3z" stroke="currentColor" stroke-width="1.2"/>
  <path d="M12.25 5.75h-1.5a3 3 0 0 0-3 3v1.5a3 3 0 0 0 3 3h1.5a3 3 0 0 0 3-3v-1.5a3 3 0 0 0-3-3z" stroke="currentColor" stroke-width="1.2"/>
</svg>
